<?xml version="1.0" encoding="utf-8"?>
<!-- Svg Vector Icons : http://www.onlinewebfonts.com/icon -->
<!DOCTYPE svg PUBLIC "-//W3C//DTD SVG 1.1//EN" "http://www.w3.org/Graphics/SVG/1.1/DTD/svg11.dtd">
<svg version="1.1" xmlns="http://www.w3.org/2000/svg" xmlns:xlink="http://www.w3.org/1999/xlink" x="0px" y="0px" viewBox="0 0 1000 1000" enable-background="new 0 0 1000 1000" xml:space="preserve">
<metadata> Svg Vector Icons : http://www.onlinewebfonts.com/icon </metadata>
<g><path d="M500,10C229.8,10,10,229.8,10,500c0,270.2,219.8,490,490,490c270.2,0,490-219.8,490-490C990,229.8,770.2,10,500,10z M500,903.8C277.3,903.8,96.2,722.7,96.2,500S277.3,96.2,500,96.2S903.8,277.3,903.8,500S722.7,903.8,500,903.8z"/><path d="M469.9,224.2C391,226,325.7,299.1,328.5,382.5c1.7,50.2,28.1,95.6,66.1,122.6c22.7,16.1,49.7,25.6,78,25.7c28.8,0.2,56.1-9.4,79-25.6c40-28.1,67.1-76.2,66.5-128.9C617.2,292,549.4,222.5,469.9,224.2L469.9,224.2z M510.4,574.5c-12.2,4-24.8,6.3-37.9,6.3c-28.3-0.2-55.2-10.5-78-27.9C357.2,566.2,195,644.4,195,656.3v87.6c0,13.1,10.1,17.1,22.4,17.1H546c-29.9-31.2-48.5-73.7-48.5-120.8C497.5,617,502.1,594.9,510.4,574.5L510.4,574.5z M667.5,502.1c-74.6,0-135.3,61.9-135.3,138.1c0,76.1,60.7,138.1,135.3,138.1c74.6,0,135.3-61.9,135.3-138.1C802.9,564,742.2,502.1,667.5,502.1L667.5,502.1z M666.1,711l-12.6,15.5L584.4,652l25.4-23.6l42,45.2l84.5-104.1l27,22L666.1,711L666.1,711z"/></g>
</svg>